<mxfile host="app.diagrams.net" modified="2023-09-19T16:35:09.052Z" agent="Mozilla/5.0 (Windows NT 10.0; Win64; x64) AppleWebKit/537.36 (KHTML, like Gecko) Chrome/117.0.0.0 Safari/537.36 Edg/117.0.2045.31" etag="ErrM9KT55KIN46WB3qG2" version="21.7.5" type="device">
  <diagram name="Страница — 1" id="Eq4eXeDzYmIdNCrqyVhS">
    <mxGraphModel dx="2147" dy="1884" grid="1" gridSize="10" guides="1" tooltips="1" connect="1" arrows="1" fold="1" page="1" pageScale="1" pageWidth="827" pageHeight="1169" math="0" shadow="0">
      <root>
        <mxCell id="0" />
        <mxCell id="1" parent="0" />
        <mxCell id="yDUDRBSmufmuSHKHlThM-1" value="&lt;br&gt;&lt;br&gt;открыть&lt;br&gt;страницу" style="ellipse;whiteSpace=wrap;html=1;aspect=fixed;" vertex="1" parent="1">
          <mxGeometry x="210" y="-950" width="110" height="110" as="geometry" />
        </mxCell>
        <mxCell id="yDUDRBSmufmuSHKHlThM-2" value="&lt;br&gt;нажатие на текстовую &lt;br&gt;ссылку о&lt;br&gt;Чульмане" style="ellipse;whiteSpace=wrap;html=1;aspect=fixed;" vertex="1" parent="1">
          <mxGeometry x="90" y="-760" width="110" height="110" as="geometry" />
        </mxCell>
        <mxCell id="yDUDRBSmufmuSHKHlThM-3" value="&lt;br&gt;отображение&lt;br&gt;авторской&lt;br&gt;страницы" style="ellipse;whiteSpace=wrap;html=1;aspect=fixed;" vertex="1" parent="1">
          <mxGeometry x="260" y="-760" width="110" height="110" as="geometry" />
        </mxCell>
        <mxCell id="yDUDRBSmufmuSHKHlThM-4" value="нажатие на&lt;br&gt;текстовую&lt;br&gt;ссылку о&lt;br&gt;Почте" style="ellipse;whiteSpace=wrap;html=1;aspect=fixed;" vertex="1" parent="1">
          <mxGeometry x="430" y="-760" width="110" height="110" as="geometry" />
        </mxCell>
        <mxCell id="yDUDRBSmufmuSHKHlThM-5" value="нажатие на&lt;br&gt;текстовую ссылку о&lt;br&gt;Телеграм" style="ellipse;whiteSpace=wrap;html=1;aspect=fixed;" vertex="1" parent="1">
          <mxGeometry x="600" y="-760" width="110" height="110" as="geometry" />
        </mxCell>
        <mxCell id="yDUDRBSmufmuSHKHlThM-6" value="&lt;br&gt;отображение&lt;br&gt;страницы о&lt;br&gt;Чульмане" style="ellipse;whiteSpace=wrap;html=1;aspect=fixed;" vertex="1" parent="1">
          <mxGeometry x="-40" y="-560" width="110" height="110" as="geometry" />
        </mxCell>
        <mxCell id="yDUDRBSmufmuSHKHlThM-7" value="&lt;br&gt;отображение&amp;nbsp;&lt;br&gt;почтовой&lt;br&gt;страницы" style="ellipse;whiteSpace=wrap;html=1;aspect=fixed;" vertex="1" parent="1">
          <mxGeometry x="414" y="-560" width="110" height="110" as="geometry" />
        </mxCell>
        <mxCell id="yDUDRBSmufmuSHKHlThM-8" value="&lt;br&gt;отображение страницы Телеграм" style="ellipse;whiteSpace=wrap;html=1;aspect=fixed;" vertex="1" parent="1">
          <mxGeometry x="594" y="-560" width="110" height="110" as="geometry" />
        </mxCell>
        <mxCell id="yDUDRBSmufmuSHKHlThM-9" value="" style="triangle;whiteSpace=wrap;html=1;rotation=90;" vertex="1" parent="1">
          <mxGeometry x="250" y="-940" width="30" height="40" as="geometry" />
        </mxCell>
        <mxCell id="yDUDRBSmufmuSHKHlThM-10" value="" style="ellipse;whiteSpace=wrap;html=1;aspect=fixed;fillColor=#000000;" vertex="1" parent="1">
          <mxGeometry x="300" y="-750" width="30" height="30" as="geometry" />
        </mxCell>
        <mxCell id="yDUDRBSmufmuSHKHlThM-14" value="" style="ellipse;whiteSpace=wrap;html=1;aspect=fixed;fillColor=#000000;" vertex="1" parent="1">
          <mxGeometry y="-550" width="30" height="30" as="geometry" />
        </mxCell>
        <mxCell id="yDUDRBSmufmuSHKHlThM-15" value="" style="ellipse;whiteSpace=wrap;html=1;aspect=fixed;fillColor=#000000;" vertex="1" parent="1">
          <mxGeometry x="454" y="-550" width="30" height="30" as="geometry" />
        </mxCell>
        <mxCell id="yDUDRBSmufmuSHKHlThM-16" value="" style="ellipse;whiteSpace=wrap;html=1;aspect=fixed;fillColor=#000000;" vertex="1" parent="1">
          <mxGeometry x="634" y="-550" width="30" height="30" as="geometry" />
        </mxCell>
        <mxCell id="yDUDRBSmufmuSHKHlThM-18" value="" style="endArrow=classic;html=1;rounded=0;entryX=0.437;entryY=-0.009;entryDx=0;entryDy=0;entryPerimeter=0;" edge="1" parent="1" target="yDUDRBSmufmuSHKHlThM-3">
          <mxGeometry width="50" height="50" relative="1" as="geometry">
            <mxPoint x="280" y="-840" as="sourcePoint" />
            <mxPoint x="330" y="-890" as="targetPoint" />
          </mxGeometry>
        </mxCell>
        <mxCell id="yDUDRBSmufmuSHKHlThM-21" value="" style="endArrow=none;html=1;rounded=0;endSize=6;jumpSize=12;strokeWidth=4;" edge="1" parent="1">
          <mxGeometry width="50" height="50" relative="1" as="geometry">
            <mxPoint x="115" y="-600" as="sourcePoint" />
            <mxPoint x="175" y="-600" as="targetPoint" />
          </mxGeometry>
        </mxCell>
        <mxCell id="yDUDRBSmufmuSHKHlThM-22" value="" style="endArrow=none;html=1;rounded=0;endSize=6;jumpSize=12;strokeWidth=4;" edge="1" parent="1">
          <mxGeometry width="50" height="50" relative="1" as="geometry">
            <mxPoint x="384" y="-600" as="sourcePoint" />
            <mxPoint x="444" y="-600" as="targetPoint" />
          </mxGeometry>
        </mxCell>
        <mxCell id="yDUDRBSmufmuSHKHlThM-23" value="" style="endArrow=none;html=1;rounded=0;endSize=6;jumpSize=12;strokeWidth=4;" edge="1" parent="1">
          <mxGeometry width="50" height="50" relative="1" as="geometry">
            <mxPoint x="590" y="-600" as="sourcePoint" />
            <mxPoint x="650" y="-600" as="targetPoint" />
          </mxGeometry>
        </mxCell>
        <mxCell id="yDUDRBSmufmuSHKHlThM-24" value="" style="endArrow=classic;html=1;rounded=0;exitX=0.345;exitY=0.994;exitDx=0;exitDy=0;exitPerimeter=0;" edge="1" parent="1" source="yDUDRBSmufmuSHKHlThM-2">
          <mxGeometry width="50" height="50" relative="1" as="geometry">
            <mxPoint x="122" y="-650" as="sourcePoint" />
            <mxPoint x="130" y="-600" as="targetPoint" />
          </mxGeometry>
        </mxCell>
        <mxCell id="yDUDRBSmufmuSHKHlThM-25" value="" style="endArrow=classic;html=1;rounded=0;" edge="1" parent="1">
          <mxGeometry width="50" height="50" relative="1" as="geometry">
            <mxPoint x="272" y="-670" as="sourcePoint" />
            <mxPoint x="160" y="-600" as="targetPoint" />
          </mxGeometry>
        </mxCell>
        <mxCell id="yDUDRBSmufmuSHKHlThM-26" value="" style="endArrow=classic;html=1;rounded=0;" edge="1" parent="1">
          <mxGeometry width="50" height="50" relative="1" as="geometry">
            <mxPoint x="350" y="-664" as="sourcePoint" />
            <mxPoint x="400" y="-600" as="targetPoint" />
          </mxGeometry>
        </mxCell>
        <mxCell id="yDUDRBSmufmuSHKHlThM-27" value="" style="endArrow=classic;html=1;rounded=0;" edge="1" parent="1">
          <mxGeometry width="50" height="50" relative="1" as="geometry">
            <mxPoint x="480" y="-650" as="sourcePoint" />
            <mxPoint x="430" y="-600" as="targetPoint" />
          </mxGeometry>
        </mxCell>
        <mxCell id="yDUDRBSmufmuSHKHlThM-28" value="" style="endArrow=classic;html=1;rounded=0;" edge="1" parent="1">
          <mxGeometry width="50" height="50" relative="1" as="geometry">
            <mxPoint x="360" y="-670" as="sourcePoint" />
            <mxPoint x="600" y="-600" as="targetPoint" />
          </mxGeometry>
        </mxCell>
        <mxCell id="yDUDRBSmufmuSHKHlThM-29" value="" style="endArrow=classic;html=1;rounded=0;" edge="1" parent="1">
          <mxGeometry width="50" height="50" relative="1" as="geometry">
            <mxPoint x="641" y="-650" as="sourcePoint" />
            <mxPoint x="620" y="-600" as="targetPoint" />
          </mxGeometry>
        </mxCell>
        <mxCell id="yDUDRBSmufmuSHKHlThM-30" value="" style="endArrow=classic;html=1;rounded=0;entryX=0.5;entryY=0;entryDx=0;entryDy=0;" edge="1" parent="1" target="yDUDRBSmufmuSHKHlThM-8">
          <mxGeometry width="50" height="50" relative="1" as="geometry">
            <mxPoint x="620" y="-599" as="sourcePoint" />
            <mxPoint x="648" y="-520" as="targetPoint" />
          </mxGeometry>
        </mxCell>
        <mxCell id="yDUDRBSmufmuSHKHlThM-31" value="" style="endArrow=classic;html=1;rounded=0;entryX=0.5;entryY=0;entryDx=0;entryDy=0;" edge="1" parent="1" target="yDUDRBSmufmuSHKHlThM-6">
          <mxGeometry width="50" height="50" relative="1" as="geometry">
            <mxPoint x="150" y="-599" as="sourcePoint" />
            <mxPoint x="196" y="-560" as="targetPoint" />
          </mxGeometry>
        </mxCell>
        <mxCell id="yDUDRBSmufmuSHKHlThM-32" value="" style="endArrow=classic;html=1;rounded=0;entryX=0.64;entryY=0.034;entryDx=0;entryDy=0;entryPerimeter=0;" edge="1" parent="1" target="yDUDRBSmufmuSHKHlThM-7">
          <mxGeometry width="50" height="50" relative="1" as="geometry">
            <mxPoint x="414" y="-599" as="sourcePoint" />
            <mxPoint x="442" y="-520" as="targetPoint" />
          </mxGeometry>
        </mxCell>
        <mxCell id="yDUDRBSmufmuSHKHlThM-33" value="&lt;br&gt;добавление нового контакта" style="ellipse;whiteSpace=wrap;html=1;aspect=fixed;" vertex="1" parent="1">
          <mxGeometry x="220" y="-390" width="110" height="110" as="geometry" />
        </mxCell>
        <mxCell id="yDUDRBSmufmuSHKHlThM-34" value="" style="rhombus;whiteSpace=wrap;html=1;fillColor=#000000;" vertex="1" parent="1">
          <mxGeometry x="260" y="-380" width="27" height="30" as="geometry" />
        </mxCell>
        <mxCell id="yDUDRBSmufmuSHKHlThM-35" value="" style="endArrow=classic;html=1;rounded=0;" edge="1" parent="1">
          <mxGeometry width="50" height="50" relative="1" as="geometry">
            <mxPoint x="310" y="-650" as="sourcePoint" />
            <mxPoint x="220" y="-430" as="targetPoint" />
          </mxGeometry>
        </mxCell>
        <mxCell id="yDUDRBSmufmuSHKHlThM-37" style="edgeStyle=orthogonalEdgeStyle;rounded=0;orthogonalLoop=1;jettySize=auto;html=1;exitX=0.5;exitY=1;exitDx=0;exitDy=0;" edge="1" parent="1" source="yDUDRBSmufmuSHKHlThM-14" target="yDUDRBSmufmuSHKHlThM-14">
          <mxGeometry relative="1" as="geometry" />
        </mxCell>
        <mxCell id="yDUDRBSmufmuSHKHlThM-38" value="ввод текста в&lt;br&gt;поле" style="ellipse;whiteSpace=wrap;html=1;aspect=fixed;" vertex="1" parent="1">
          <mxGeometry x="100" y="-560" width="110" height="110" as="geometry" />
        </mxCell>
        <mxCell id="yDUDRBSmufmuSHKHlThM-39" value="нажатие на&lt;br&gt;кнопку" style="ellipse;whiteSpace=wrap;html=1;aspect=fixed;" vertex="1" parent="1">
          <mxGeometry x="290" y="-560" width="110" height="110" as="geometry" />
        </mxCell>
        <mxCell id="yDUDRBSmufmuSHKHlThM-40" value="" style="endArrow=none;html=1;rounded=0;endSize=6;jumpSize=12;strokeWidth=4;" edge="1" parent="1">
          <mxGeometry width="50" height="50" relative="1" as="geometry">
            <mxPoint x="205" y="-430" as="sourcePoint" />
            <mxPoint x="265" y="-430" as="targetPoint" />
          </mxGeometry>
        </mxCell>
        <mxCell id="yDUDRBSmufmuSHKHlThM-41" value="" style="endArrow=classic;html=1;rounded=0;" edge="1" parent="1">
          <mxGeometry width="50" height="50" relative="1" as="geometry">
            <mxPoint x="190" y="-460" as="sourcePoint" />
            <mxPoint x="210" y="-430" as="targetPoint" />
          </mxGeometry>
        </mxCell>
        <mxCell id="yDUDRBSmufmuSHKHlThM-42" value="" style="endArrow=classic;html=1;rounded=0;" edge="1" parent="1">
          <mxGeometry width="50" height="50" relative="1" as="geometry">
            <mxPoint x="310" y="-460" as="sourcePoint" />
            <mxPoint x="240" y="-430" as="targetPoint" />
          </mxGeometry>
        </mxCell>
        <mxCell id="yDUDRBSmufmuSHKHlThM-44" value="" style="endArrow=classic;html=1;rounded=0;entryX=0.335;entryY=0.02;entryDx=0;entryDy=0;entryPerimeter=0;" edge="1" parent="1" target="yDUDRBSmufmuSHKHlThM-33">
          <mxGeometry width="50" height="50" relative="1" as="geometry">
            <mxPoint x="230" y="-430" as="sourcePoint" />
            <mxPoint x="280" y="-480" as="targetPoint" />
          </mxGeometry>
        </mxCell>
        <mxCell id="yDUDRBSmufmuSHKHlThM-45" value="" style="endArrow=classic;html=1;rounded=0;entryX=0.213;entryY=0.942;entryDx=0;entryDy=0;entryPerimeter=0;" edge="1" parent="1" target="yDUDRBSmufmuSHKHlThM-3">
          <mxGeometry width="50" height="50" relative="1" as="geometry">
            <mxPoint x="270" y="-390" as="sourcePoint" />
            <mxPoint x="320" y="-440" as="targetPoint" />
          </mxGeometry>
        </mxCell>
      </root>
    </mxGraphModel>
  </diagram>
</mxfile>
